<?xml version="1.0" standalone="no"?>
<!DOCTYPE svg PUBLIC "-//W3C//DTD SVG 20010904//EN"
 "http://www.w3.org/TR/2001/REC-SVG-20010904/DTD/svg10.dtd">
<svg version="1.0" xmlns="http://www.w3.org/2000/svg"
 width="173.000000pt" height="173.000000pt" viewBox="0 0 173.000000 173.000000"
 preserveAspectRatio="xMidYMid meet">
<metadata>
Created by potrace 1.11, written by Peter Selinger 2001-2013
</metadata>
<g transform="translate(0.000000,173.000000) scale(0.100000,-0.100000)"
fill="#000000" stroke="none">
<path d="M668 1699 c-165 -39 -298 -115 -423 -243 -164 -167 -247 -380 -239
-616 1 -52 5 -108 9 -125 20 -94 28 -124 55 -187 139 -327 459 -533 812 -523
176 4 306 44 456 139 198 125 354 377 377 611 4 39 9 80 10 93 5 46 -12 6 -24
-58 -36 -187 -164 -372 -332 -481 -248 -162 -570 -163 -824 -4 -279 174 -416
514 -335 830 76 295 291 501 600 571 l55 13 -60 -1 c-33 -1 -95 -9 -137 -19z"/>
<path d="M803 1619 c-297 -84 -490 -324 -507 -627 -1 -34 0 -65 4 -67 4 -2 7
6 6 18 -3 38 22 142 48 201 62 141 166 245 309 311 180 83 395 71 567 -33 393
-238 392 -805 -3 -1045 -55 -33 -180 -80 -214 -80 -7 0 -10 -4 -7 -9 3 -5 9
-6 13 -4 4 3 26 7 50 10 154 18 311 104 416 227 66 78 100 138 131 234 34 102
42 268 18 360 -63 241 -220 412 -449 491 -103 35 -283 42 -382 13z"/>
<path d="M675 1137 c-92 -31 -154 -82 -189 -157 -31 -66 -29 -206 3 -273 65
-133 243 -184 438 -126 l31 10 -1 147 -2 147 -102 0 -103 1 0 -43 0 -43 50 0
50 0 0 -75 0 -75 -32 -1 c-95 -4 -142 9 -186 52 -87 86 -71 259 30 326 37 25
51 28 122 28 45 0 93 -4 107 -9 24 -7 27 -5 37 33 9 38 8 42 -11 53 -33 17
-195 20 -242 5z"/>
<path d="M1179 1135 c0 -5 -1 -102 -2 -215 -2 -133 -7 -212 -14 -226 -22 -38
-43 -48 -98 -46 l-52 2 -6 -37 c-4 -21 -2 -42 3 -47 6 -6 41 -10 78 -10 92 0
138 24 171 88 24 47 25 55 26 275 l1 228 -53 -1 c-29 -1 -53 -5 -54 -11z"/>
</g>
</svg>
